simulation
nRows=44
nColumns=15
endheader
time  TH_x TH_y TH_z SC_y  SC_z  SC_x  AC_y  AC_z  AC_x  GH_y  GH_z  GH_yy  EL_x  PS_y
2.550000  0.000000  0.000000  0.000000  -29.531121  0.120389  6.017733  61.475196  16.028909  -3.439403  36.929633  37.752849  -18.069817  24.633061  0.000000
2.560000  0.000000  0.000000  0.000000  -29.516453  0.093013  5.903905  61.356315  15.803825  -3.521841  36.622891  37.350610  -17.477285  24.667800  0.000000
2.570000  0.000000  0.000000  0.000000  -29.501681  0.065472  5.790197  61.236919  15.577477  -3.604719  36.314359  36.946543  -16.883129  24.702726  0.000000
2.580000  0.000000  0.000000  0.000000  -29.486811  0.037776  5.676645  61.117029  15.349926  -3.688014  36.004080  36.540732  -16.287484  24.737831  0.000000
2.590000  0.000000  0.000000  0.000000  -29.471849  0.009935  5.563284  60.996668  15.121233  -3.771704  35.692098  36.133264  -15.690482  24.773106  0.000000
2.600000  0.000000  0.000000  0.000000  -29.456801  -0.018041  5.450153  60.875860  14.891459  -3.855766  35.378459  35.724224  -15.092259  24.808542  0.000000
2.610000  0.000000  0.000000  0.000000  -29.441672  -0.046142  5.337287  60.754627  14.660665  -3.940176  35.063206  35.313701  -14.492952  24.844130  0.000000
2.620000  0.000000  0.000000  0.000000  -29.426469  -0.074358  5.224724  60.632991  14.428916  -4.024911  34.746387  34.901783  -13.892698  24.879860  0.000000
2.630000  0.000000  0.000000  0.000000  -29.411198  -0.102677  5.112503  60.510978  14.196275  -4.109947  34.428047  34.488559  -13.291637  24.915724  0.000000
2.640000  0.000000  0.000000  0.000000  -29.395866  -0.131090  5.000662  60.388610  13.962806  -4.195260  34.108234  34.074119  -12.689910  24.951712  0.000000
2.650000  0.000000  0.000000  0.000000  -29.380479  -0.159586  4.889238  60.265911  13.728574  -4.280826  33.786993  33.658554  -12.087657  24.987814  0.000000
2.660000  0.000000  0.000000  0.000000  -29.365043  -0.188154  4.778271  60.142906  13.493647  -4.366620  33.464373  33.241957  -11.485023  25.024021  0.000000
2.670000  0.000000  0.000000  0.000000  -29.349566  -0.216783  4.667801  60.019619  13.258090  -4.452616  33.140423  32.824421  -10.882151  25.060323  0.000000
2.680000  0.000000  0.000000  0.000000  -29.334053  -0.245462  4.557866  59.896074  13.021971  -4.538791  32.815190  32.406040  -10.279187  25.096711  0.000000
2.690000  0.000000  0.000000  0.000000  -29.318511  -0.274180  4.448506  59.772297  12.785359  -4.625118  32.488724  31.986908  -9.676277  25.133174  0.000000
2.700000  0.000000  0.000000  0.000000  -29.302948  -0.302924  4.339763  59.648312  12.548323  -4.711571  32.161075  31.567121  -9.073571  25.169702  0.000000
2.710000  0.000000  0.000000  0.000000  -29.287370  -0.331685  4.231676  59.524146  12.310933  -4.798125  31.832292  31.146775  -8.471217  25.206285  0.000000
2.720000  0.000000  0.000000  0.000000  -29.271785  -0.360449  4.124287  59.399822  12.073259  -4.884752  31.502427  30.725969  -7.869366  25.242913  0.000000
2.730000  0.000000  0.000000  0.000000  -29.256198  -0.389206  4.017637  59.275368  11.835373  -4.971426  31.171531  30.304801  -7.268171  25.279575  0.000000
2.740000  0.000000  0.000000  0.000000  -29.240619  -0.417944  3.911767  59.150809  11.597348  -5.058120  30.839655  29.883371  -6.667784  25.316261  0.000000
2.750000  0.000000  0.000000  0.000000  -29.225053  -0.446649  3.806720  59.026172  11.359256  -5.144807  30.506852  29.461778  -6.068360  25.352959  0.000000
2.760000  0.000000  0.000000  0.000000  -29.209508  -0.475311  3.702538  58.901483  11.121172  -5.231460  30.173173  29.040123  -5.470055  25.389660  0.000000
2.770000  0.000000  0.000000  0.000000  -29.193992  -0.503916  3.599264  58.776769  10.883170  -5.318049  29.838674  28.618510  -4.873026  25.426353  0.000000
2.780000  0.000000  0.000000  0.000000  -29.178513  -0.532452  3.496941  58.652056  10.645325  -5.404547  29.503406  28.197041  -4.277432  25.463025  0.000000
2.790000  0.000000  0.000000  0.000000  -29.163077  -0.560908  3.395612  58.527373  10.407713  -5.490926  29.167424  27.775820  -3.683432  25.499667  0.000000
2.800000  0.000000  0.000000  0.000000  -29.147692  -0.589269  3.295321  58.402746  10.170413  -5.577157  28.830783  27.354952  -3.091188  25.536267  0.000000
2.810000  0.000000  0.000000  0.000000  -29.132368  -0.617523  3.196113  58.278204  9.933500  -5.663210  28.493538  26.934543  -2.500861  25.572814  0.000000
2.820000  0.000000  0.000000  0.000000  -29.117110  -0.645657  3.098031  58.153774  9.697055  -5.749057  28.155745  26.514700  -1.912615  25.609296  0.000000
2.830000  0.000000  0.000000  0.000000  -29.101927  -0.673657  3.001121  58.029484  9.461155  -5.834667  27.817460  26.095529  -1.326616  25.645701  0.000000
2.840000  0.000000  0.000000  0.000000  -29.086828  -0.701512  2.905428  57.905363  9.225882  -5.920011  27.478739  25.677141  -0.743028  25.682019  0.000000
2.850000  0.000000  0.000000  0.000000  -29.071820  -0.729206  2.810998  57.781439  8.991316  -6.005059  27.139639  25.259643  -0.162021  25.718236  0.000000
2.860000  0.000000  0.000000  0.000000  -29.056912  -0.756727  2.717875  57.657741  8.757538  -6.089779  26.800219  24.843148  0.416238  25.754342  0.000000
2.870000  0.000000  0.000000  0.000000  -29.042112  -0.784060  2.626108  57.534299  8.524631  -6.174141  26.460536  24.427765  0.991579  25.790323  0.000000
2.880000  0.000000  0.000000  0.000000  -29.027428  -0.811193  2.535741  57.411142  8.292679  -6.258115  26.120649  24.013608  1.563830  25.826169  0.000000
2.890000  0.000000  0.000000  0.000000  -29.012869  -0.838111  2.446823  57.288299  8.061765  -6.341668  25.780617  23.600789  2.132819  25.861866  0.000000
2.900000  0.000000  0.000000  0.000000  -28.998444  -0.864799  2.359401  57.165801  7.831974  -6.424769  25.440500  23.189423  2.698371  25.897403  0.000000
2.910000  0.000000  0.000000  0.000000  -28.984160  -0.891244  2.273521  57.043676  7.603392  -6.507385  25.100357  22.779624  3.260313  25.932766  0.000000
2.920000  0.000000  0.000000  0.000000  -28.970028  -0.917431  2.189233  56.921956  7.376104  -6.589486  24.760250  22.371508  3.818466  25.967944  0.000000
2.930000  0.000000  0.000000  0.000000  -28.956055  -0.943346  2.106584  56.800671  7.150199  -6.671037  24.420240  21.965193  4.372654  26.002923  0.000000
2.940000  0.000000  0.000000  0.000000  -28.942251  -0.968974  2.025623  56.679852  6.925763  -6.752006  24.080388  21.560795  4.922698  26.037691  0.000000
2.950000  0.000000  0.000000  0.000000  -28.928624  -0.994300  1.946400  56.559530  6.702885  -6.832360  23.740756  21.158434  5.468417  26.072234  0.000000
2.960000  0.000000  0.000000  0.000000  -28.915184  -1.019310  1.868964  56.439735  6.481655  -6.912066  23.401407  20.758229  6.009630  26.106540  0.000000
2.970000  0.000000  0.000000  0.000000  -28.901940  -1.043988  1.793364  56.320500  6.262163  -6.991089  23.062404  20.360301  6.546153  26.140595  0.000000
2.980000  0.000000  0.000000  0.000000  -28.888901  -1.068318  1.719651  56.201857  6.044500  -7.069396  22.723810  19.964770  7.077803  26.174387  0.000000
